<?xml version="1.0" encoding="UTF-8" standalone="no"?>
<!-- Created with Inkscape (http://www.inkscape.org/) -->

<svg
   xmlns:dc="http://purl.org/dc/elements/1.1/"
   xmlns:cc="http://creativecommons.org/ns#"
   xmlns:rdf="http://www.w3.org/1999/02/22-rdf-syntax-ns#"
   xmlns:svg="http://www.w3.org/2000/svg"
   xmlns="http://www.w3.org/2000/svg"
   xmlns:xlink="http://www.w3.org/1999/xlink"
   xmlns:sodipodi="http://sodipodi.sourceforge.net/DTD/sodipodi-0.dtd"
   xmlns:inkscape="http://www.inkscape.org/namespaces/inkscape"
   width="64"
   height="64"
   id="svg2"
   version="1.1"
   inkscape:version="0.48.3.1 r9886"
   sodipodi:docname="q.svg">
  <defs
     id="defs4">
    <linearGradient
       id="linearGradient3866">
      <stop
         style="stop-color:#c0c200;stop-opacity:1;"
         offset="0"
         id="stop3868" />
      <stop
         style="stop-color:#242400;stop-opacity:1;"
         offset="1"
         id="stop3870" />
    </linearGradient>
    <linearGradient
       id="linearGradient3848">
      <stop
         style="stop-color:#fdff10;stop-opacity:1;"
         offset="0"
         id="stop3850" />
      <stop
         id="stop3856"
         offset="0.32145715"
         style="stop-color:#fdff39;stop-opacity:1;" />
      <stop
         style="stop-color:#b8ba00;stop-opacity:1;"
         offset="1"
         id="stop3852" />
    </linearGradient>
    <linearGradient
       inkscape:collect="always"
       xlink:href="#linearGradient3848"
       id="linearGradient3854"
       x1="15.299858"
       y1="996.96112"
       x2="57.37772"
       y2="1047.0177"
       gradientUnits="userSpaceOnUse"
       gradientTransform="translate(-0.625,0)" />
    <linearGradient
       inkscape:collect="always"
       xlink:href="#linearGradient3866"
       id="linearGradient3872"
       x1="17.868507"
       y1="997.02051"
       x2="53.987999"
       y2="1045.1455"
       gradientUnits="userSpaceOnUse"
       gradientTransform="translate(-0.625,0)" />
  </defs>
  <sodipodi:namedview
     id="base"
     pagecolor="#ffffff"
     bordercolor="#666666"
     borderopacity="1.0"
     inkscape:pageopacity="0.0"
     inkscape:pageshadow="2"
     inkscape:zoom="8"
     inkscape:cx="57.894923"
     inkscape:cy="21.781542"
     inkscape:document-units="px"
     inkscape:current-layer="layer1"
     showgrid="false"
     inkscape:window-width="1920"
     inkscape:window-height="1018"
     inkscape:window-x="-8"
     inkscape:window-y="-8"
     inkscape:window-maximized="1" />
  <metadata
     id="metadata7">
    <rdf:RDF>
      <cc:Work
         rdf:about="">
        <dc:format>image/svg+xml</dc:format>
        <dc:type
           rdf:resource="http://purl.org/dc/dcmitype/StillImage" />
        <dc:title></dc:title>
      </cc:Work>
    </rdf:RDF>
  </metadata>
  <g
     inkscape:label="Layer 1"
     inkscape:groupmode="layer"
     id="layer1"
     transform="translate(0,-988.36218)">
    <path
       id="path3840"
       style="font-size:40px;font-style:normal;font-variant:normal;font-weight:bold;font-stretch:normal;line-height:125%;letter-spacing:0px;word-spacing:0px;fill:url(#linearGradient3854);fill-opacity:1;stroke:url(#linearGradient3872);stroke-width:1.16499996;stroke-linejoin:round;stroke-miterlimit:4;stroke-opacity:1;stroke-dasharray:none;font-family:Arial;-inkscape-font-specification:Arial Bold"
       d="m 26.382639,1050.8032 0,-10.4626 10.462687,0 0,10.4626 z m 10.432817,-15.5164 -10.472572,0 c -0.0274,-1.5059 -0.04109,-2.4231 -0.04107,-2.7516 -2.1e-5,-3.3951 0.561254,-6.1877 1.683825,-8.3781 1.122526,-2.1903 3.367624,-4.6545 6.735301,-7.3924 3.367617,-2.7379 5.379993,-4.5312 6.03713,-5.38 1.012997,-1.3416 1.519513,-2.8201 1.519549,-4.4355 -3.6e-5,-2.245 -0.896707,-4.1684 -2.690014,-5.7702 -1.793375,-1.6016 -4.209592,-2.40244 -7.248663,-2.40249 -2.929605,5e-5 -5.380047,0.83512 -7.351333,2.50519 -1.971325,1.6702 -3.326598,4.2165 -4.065823,7.6388 l -10.595779,-1.3142 c 0.301167,-4.9008 2.388836,-9.06246 6.263009,-12.48493 3.874153,-3.42234 8.959849,-5.13355 15.257099,-5.13361 6.625753,6e-5 11.896258,1.7318 15.811531,5.19522 3.915189,3.46353 5.872806,7.49512 5.872852,12.09482 -4.6e-5,2.5463 -0.718752,4.9557 -2.156116,7.2281 -1.437456,2.2725 -4.510776,5.3664 -9.219971,9.2816 -2.436788,2.0261 -3.949491,3.6551 -4.538114,4.8872 -0.588686,1.2321 -0.855633,3.4361 -0.800843,6.6121 z"
       inkscape:connector-curvature="0" />
  </g>
</svg>
